<svg xmlns="http://www.w3.org/2000/svg" xmlns:xlink="http://www.w3.org/1999/xlink" width="500" zoomAndPan="magnify" viewBox="0 0 375 374.999991" height="500" preserveAspectRatio="xMidYMid meet" version="1.0"><defs><clipPath id="cad43dfaae"><path d="M 0 8.066406 L 375 8.066406 L 375 291.566406 L 0 291.566406 Z M 0 8.066406 " clip-rule="nonzero"/></clipPath></defs><g clip-path="url(#cad43dfaae)"><path fill="#30638e" d="M 241.113281 107.839844 C 241.113281 102.730469 236.96875 98.589844 231.859375 98.589844 C 226.75 98.589844 222.605469 102.730469 222.605469 107.839844 C 222.605469 112.953125 226.75 117.09375 231.859375 117.09375 C 236.96875 117.09375 241.113281 112.953125 241.113281 107.839844 Z M 250.621094 186.210938 C 245.507812 186.210938 241.363281 190.351562 241.363281 195.464844 C 241.363281 200.574219 245.507812 204.71875 250.621094 204.71875 C 255.726562 204.71875 259.875 200.574219 259.875 195.464844 C 259.875 190.351562 255.726562 186.210938 250.621094 186.210938 Z M 99.902344 210.046875 C 96.285156 213.664062 96.285156 219.523438 99.902344 223.136719 C 103.515625 226.75 109.375 226.75 112.988281 223.136719 C 116.605469 219.523438 116.605469 213.664062 112.988281 210.046875 C 109.375 206.433594 103.515625 206.433594 99.902344 210.046875 Z M 144.105469 121.332031 C 138.996094 121.332031 134.851562 125.472656 134.851562 130.585938 C 134.851562 135.695312 138.996094 139.839844 144.105469 139.839844 C 149.21875 139.839844 153.359375 135.695312 153.359375 130.585938 C 153.359375 125.472656 149.21875 121.332031 144.105469 121.332031 Z M 352.226562 141.699219 C 340.410156 128.335938 325.03125 118.808594 308.046875 114.183594 C 306.886719 78.449219 277.457031 49.734375 241.449219 49.734375 C 237.269531 49.734375 233.136719 50.121094 229.078125 50.886719 C 222.070312 39.664062 212.683594 30.070312 201.492188 22.785156 C 186.746094 13.183594 169.617188 8.105469 151.949219 8.105469 C 101.832031 8.105469 61.058594 48.878906 61.058594 98.996094 C 61.058594 104.566406 61.5625 110.082031 62.558594 115.5 C 46.949219 120.628906 32.886719 129.957031 22.019531 142.566406 C 7.820312 159.035156 0 180.101562 0 201.875 C 0 202.503906 0.0078125 203.128906 0.0195312 203.75 C 0.777344 240.980469 24.445312 272.378906 57.277344 285.28125 L 57.277344 187.148438 C 52.421875 184.582031 49.113281 179.480469 49.113281 173.605469 C 49.113281 164.949219 56.300781 157.96875 65.03125 158.300781 C 72.921875 158.601562 79.375 164.996094 79.734375 172.890625 C 80.015625 179.066406 76.640625 184.476562 71.589844 187.148438 L 71.589844 289.582031 C 77.71875 290.886719 84.066406 291.574219 90.5625 291.574219 L 147.90625 291.574219 L 147.90625 260.105469 L 110.960938 231.230469 C 105.710938 232.839844 99.765625 231.574219 95.613281 227.421875 C 89.492188 221.300781 89.636719 211.285156 96.042969 205.34375 C 101.839844 199.972656 110.925781 199.9375 116.757812 205.265625 C 121.320312 209.429688 122.761719 215.644531 121.082031 221.105469 L 162.222656 254.175781 L 162.222656 291.574219 L 180.699219 291.574219 L 180.699219 230.414062 L 136.949219 196.058594 L 136.949219 144.128906 C 131.902344 141.453125 128.523438 136.042969 128.804688 129.871094 C 129.167969 121.976562 135.617188 115.582031 143.507812 115.277344 C 152.242188 114.949219 159.425781 121.925781 159.425781 130.585938 C 159.425781 136.460938 156.117188 141.558594 151.265625 144.128906 L 151.265625 189.097656 L 180.699219 212.210938 L 180.699219 97.699219 C 175.847656 95.128906 172.539062 90.03125 172.539062 84.15625 C 172.539062 75.5 179.722656 68.519531 188.457031 68.851562 C 196.347656 69.152344 202.800781 75.550781 203.15625 83.441406 C 203.4375 89.613281 200.0625 95.023438 195.011719 97.699219 L 195.011719 172.621094 L 224.703125 149.308594 L 224.703125 121.382812 C 219.847656 118.816406 216.539062 113.714844 216.539062 107.839844 C 216.539062 99.179688 223.722656 92.203125 232.457031 92.53125 C 240.347656 92.835938 246.796875 99.234375 247.160156 107.125 C 247.441406 113.300781 244.0625 118.710938 239.015625 121.382812 L 239.015625 156.265625 L 195.011719 190.820312 L 195.011719 291.574219 L 282.480469 291.574219 L 243.460938 260.933594 L 243.460938 209.007812 C 238.414062 206.332031 235.035156 200.921875 235.316406 194.75 C 235.679688 186.855469 242.128906 180.460938 250.023438 180.15625 C 258.753906 179.824219 265.9375 186.804688 265.9375 195.464844 C 265.9375 201.339844 262.632812 206.4375 257.777344 209.007812 L 257.777344 253.972656 L 287.210938 277.089844 L 287.210938 162.578125 C 282.359375 160.007812 279.050781 154.90625 279.050781 149.03125 C 279.050781 140.378906 286.238281 133.394531 294.96875 133.730469 C 302.859375 134.027344 309.3125 140.425781 309.667969 148.316406 C 309.949219 154.488281 306.578125 159.902344 301.527344 162.578125 L 301.527344 290.261719 C 318.839844 287.269531 335.03125 279.242188 347.722656 266.792969 C 348.15625 266.371094 348.585938 265.941406 349.015625 265.5 C 365.773438 248.410156 375 225.8125 375 201.875 C 375 179.683594 366.910156 158.3125 352.226562 141.699219 Z M 64.433594 164.355469 C 59.320312 164.355469 55.175781 168.496094 55.175781 173.605469 C 55.175781 178.714844 59.320312 182.859375 64.433594 182.859375 C 69.542969 182.859375 73.6875 178.714844 73.6875 173.605469 C 73.6875 168.496094 69.542969 164.355469 64.433594 164.355469 Z M 187.855469 74.902344 C 182.746094 74.902344 178.601562 79.046875 178.601562 84.15625 C 178.601562 89.269531 182.746094 93.414062 187.855469 93.414062 C 192.964844 93.414062 197.109375 89.269531 197.109375 84.15625 C 197.109375 79.046875 192.964844 74.902344 187.855469 74.902344 Z M 294.367188 139.78125 C 289.257812 139.78125 285.113281 143.925781 285.113281 149.03125 C 285.113281 154.148438 289.257812 158.289062 294.367188 158.289062 C 299.480469 158.289062 303.621094 154.148438 303.621094 149.03125 C 303.621094 143.925781 299.480469 139.78125 294.367188 139.78125 " fill-opacity="1" fill-rule="nonzero"/></g></svg>