<svg xmlns="http://www.w3.org/2000/svg" xmlns:xlink="http://www.w3.org/1999/xlink" width="500" zoomAndPan="magnify" viewBox="0 0 375 374.999991" height="500" preserveAspectRatio="xMidYMid meet" version="1.0"><defs><clipPath id="7fedfbfcde"><path d="M 4.988281 8.066406 L 369.488281 8.066406 L 369.488281 284 L 4.988281 284 Z M 4.988281 8.066406 " clip-rule="nonzero"/></clipPath></defs><g clip-path="url(#7fedfbfcde)"><path fill="#ffffff" d="M 239.371094 105.054688 C 239.371094 100.082031 235.34375 96.058594 230.375 96.058594 C 225.40625 96.058594 221.378906 100.082031 221.378906 105.054688 C 221.378906 110.023438 225.40625 114.046875 230.375 114.046875 C 235.34375 114.046875 239.371094 110.023438 239.371094 105.054688 Z M 248.613281 181.234375 C 243.644531 181.234375 239.613281 185.257812 239.613281 190.230469 C 239.613281 195.195312 243.644531 199.226562 248.613281 199.226562 C 253.578125 199.226562 257.609375 195.195312 257.609375 190.230469 C 257.609375 185.257812 253.578125 181.234375 248.613281 181.234375 Z M 102.101562 204.40625 C 98.585938 207.921875 98.585938 213.617188 102.101562 217.128906 C 105.613281 220.644531 111.308594 220.644531 114.824219 217.128906 C 118.335938 213.617188 118.335938 207.921875 114.824219 204.40625 C 111.308594 200.894531 105.613281 200.894531 102.101562 204.40625 Z M 145.074219 118.167969 C 140.105469 118.167969 136.078125 122.191406 136.078125 127.164062 C 136.078125 132.128906 140.105469 136.160156 145.074219 136.160156 C 150.042969 136.160156 154.070312 132.128906 154.070312 127.164062 C 154.070312 122.191406 150.042969 118.167969 145.074219 118.167969 Z M 347.386719 137.96875 C 335.898438 124.976562 320.949219 115.714844 304.441406 111.214844 C 303.3125 76.480469 274.703125 48.566406 239.699219 48.566406 C 235.636719 48.566406 231.617188 48.941406 227.671875 49.6875 C 220.859375 38.777344 211.734375 29.453125 200.855469 22.367188 C 186.523438 13.035156 169.871094 8.101562 152.699219 8.101562 C 103.980469 8.101562 64.339844 47.734375 64.339844 96.453125 C 64.339844 101.871094 64.832031 107.230469 65.800781 112.496094 C 50.628906 117.480469 36.957031 126.550781 26.390625 138.808594 C 12.589844 154.820312 4.988281 175.296875 4.988281 196.464844 C 4.988281 197.074219 4.996094 197.679688 5.007812 198.285156 C 5.742188 234.476562 28.75 265 60.664062 277.542969 L 60.664062 182.148438 C 55.945312 179.652344 52.730469 174.691406 52.730469 168.984375 C 52.730469 160.566406 59.714844 153.78125 68.203125 154.101562 C 75.875 154.398438 82.144531 160.613281 82.496094 168.289062 C 82.769531 174.289062 79.488281 179.550781 74.578125 182.148438 L 74.578125 281.722656 C 80.535156 282.988281 86.707031 283.65625 93.023438 283.65625 L 148.765625 283.65625 L 148.765625 253.066406 L 112.851562 225 C 107.75 226.566406 101.96875 225.332031 97.933594 221.296875 C 91.980469 215.347656 92.121094 205.609375 98.351562 199.835938 C 103.984375 194.613281 112.816406 194.582031 118.488281 199.757812 C 122.921875 203.808594 124.324219 209.847656 122.691406 215.15625 L 162.679688 247.304688 L 162.679688 283.65625 L 180.644531 283.65625 L 180.644531 224.207031 L 138.117188 190.808594 L 138.117188 140.328125 C 133.207031 137.730469 129.925781 132.46875 130.199219 126.46875 C 130.550781 118.792969 136.820312 112.578125 144.492188 112.28125 C 152.980469 111.960938 159.964844 118.746094 159.964844 127.164062 C 159.964844 132.875 156.75 137.832031 152.03125 140.328125 L 152.03125 184.039062 L 180.644531 206.511719 L 180.644531 95.195312 C 175.925781 92.695312 172.710938 87.738281 172.710938 82.027344 C 172.710938 73.613281 179.695312 66.828125 188.183594 67.152344 C 195.855469 67.441406 202.128906 73.664062 202.476562 81.332031 C 202.75 87.332031 199.46875 92.59375 194.558594 95.195312 L 194.558594 168.023438 L 223.417969 145.363281 L 223.417969 118.21875 C 218.699219 115.722656 215.484375 110.761719 215.484375 105.054688 C 215.484375 96.636719 222.46875 89.851562 230.957031 90.171875 C 238.628906 90.46875 244.898438 96.683594 245.25 104.359375 C 245.523438 110.359375 242.238281 115.621094 237.335938 118.21875 L 237.335938 152.125 L 194.558594 185.71875 L 194.558594 283.65625 L 279.585938 283.65625 L 241.652344 253.875 L 241.652344 203.394531 C 236.75 200.796875 233.464844 195.535156 233.738281 189.535156 C 234.089844 181.859375 240.359375 175.644531 248.035156 175.351562 C 256.519531 175.027344 263.503906 181.8125 263.503906 190.230469 C 263.503906 195.941406 260.289062 200.898438 255.570312 203.394531 L 255.570312 247.109375 L 284.183594 269.578125 L 284.183594 158.261719 C 279.46875 155.761719 276.25 150.804688 276.25 145.09375 C 276.25 136.679688 283.238281 129.894531 291.722656 130.21875 C 299.394531 130.507812 305.667969 136.730469 306.015625 144.398438 C 306.289062 150.398438 303.007812 155.660156 298.097656 158.261719 L 298.097656 282.382812 C 314.929688 279.476562 330.667969 271.667969 343.003906 259.570312 C 343.429688 259.15625 343.847656 258.738281 344.265625 258.3125 C 360.554688 241.699219 369.523438 219.730469 369.523438 196.464844 C 369.523438 174.890625 361.660156 154.117188 347.386719 137.96875 Z M 67.621094 159.988281 C 62.652344 159.988281 58.625 164.011719 58.625 168.984375 C 58.625 173.949219 62.652344 177.976562 67.621094 177.976562 C 72.589844 177.976562 76.617188 173.949219 76.617188 168.984375 C 76.617188 164.011719 72.589844 159.988281 67.621094 159.988281 Z M 187.601562 73.03125 C 182.632812 73.03125 178.605469 77.0625 178.605469 82.027344 C 178.605469 87 182.632812 91.027344 187.601562 91.027344 C 192.570312 91.027344 196.597656 87 196.597656 82.027344 C 196.597656 77.0625 192.570312 73.03125 187.601562 73.03125 Z M 291.140625 136.101562 C 286.171875 136.101562 282.144531 140.128906 282.144531 145.09375 C 282.144531 150.066406 286.171875 154.09375 291.140625 154.09375 C 296.109375 154.09375 300.136719 150.066406 300.136719 145.09375 C 300.136719 140.128906 296.109375 136.101562 291.140625 136.101562 " fill-opacity="1" fill-rule="nonzero"/></g></svg>